{
  "accessors": [
    {
      "bufferView": 2,
      "componentType": 5126,
      "count": 3325,
      "max": [
        6735.55908203125,
        653.6592407226563,
        1152.010986328125
      ],
      "min": [
        -3447.065185546875,
        -283.7276916503906,
        -2606.519775390625
      ],
      "type": "VEC3"
    },
    {
      "bufferView": 2,
      "byteOffset": 39900,
      "componentType": 5126,
      "count": 3325,
      "max": [
        1.0,
        1.0,
        1.0
      ],
      "min": [
        -1.0,
        -1.0,
        -1.0
      ],
      "type": "VEC3"
    },
    {
      "bufferView": 1,
      "componentType": 5126,
      "count": 3325,
      "max": [
        1.9901742935180664,
        0.9928363561630249
      ],
      "min": [
        0.001635563443414867,
        0.0041025131940841675
      ],
      "type": "VEC2"
    },
    {
      "bufferView": 0,
      "componentType": 5125,
      "count": 8895,
      "type": "SCALAR"
    }
  ],
  "asset": {
    "extras": {
      "author": "Ivan008 (https://sketchfab.com/hukan008)",
      "license": "CC-BY-4.0 (http://creativecommons.org/licenses/by/4.0/)",
      "source": "https://sketchfab.com/3d-models/gun-m4a1-d41a80aa5bc14742be249d2e8e7369b9",
      "title": "Gun M4A1"
    },
    "generator": "Sketchfab-12.65.0",
    "version": "2.0"
  },
  "bufferViews": [
    {
      "buffer": 0,
      "byteLength": 35580,
      "name": "floatBufferViews",
      "target": 34963
    },
    {
      "buffer": 0,
      "byteLength": 26600,
      "byteOffset": 35580,
      "byteStride": 8,
      "name": "floatBufferViews",
      "target": 34962
    },
    {
      "buffer": 0,
      "byteLength": 79800,
      "byteOffset": 62180,
      "byteStride": 12,
      "name": "floatBufferViews",
      "target": 34962
    }
  ],
  "buffers": [
    {
      "byteLength": 141980,
      "uri": "scene.bin"
    }
  ],
  "images": [
    {
      "uri": "textures/Material_118_baseColor.png"
    }
  ],
  "materials": [
    {
      "doubleSided": true,
      "name": "Material_118",
      "pbrMetallicRoughness": {
        "baseColorTexture": {
          "index": 0
        },
        "metallicFactor": 0.0,
        "roughnessFactor": 0.6
      }
    }
  ],
  "meshes": [
    {
      "name": "Object13_Material #118_0",
      "primitives": [
        {
          "attributes": {
            "NORMAL": 1,
            "POSITION": 0,
            "TEXCOORD_0": 2
          },
          "indices": 3,
          "material": 0,
          "mode": 4
        }
      ]
    }
  ],
  "nodes": [
    {
      "children": [
        1
      ],
      "matrix": [
        9.340117685496807e-05,
        0.0,
        0.0,
        0.0,
        0.0,
        2.0739227414294364e-20,
        -9.340117685496807e-05,
        0.0,
        0.0,
        9.340117685496807e-05,
        2.0739227414294364e-20,
        0.0,
        0.0,
        -3.155443620884047e-29,
        1.4210854715202004e-13,
        1.0
      ],
      "name": "Sketchfab_model"
    },
    {
      "children": [
        2
      ],
      "matrix": [
        1.0,
        0.0,
        0.0,
        0.0,
        0.0,
        0.0,
        1.0,
        0.0,
        0.0,
        -1.0,
        0.0,
        0.0,
        0.0,
        0.0,
        0.0,
        1.0
      ],
      "name": "34f7e8a5e050435da0d3c40f6fcc58b7.fbx"
    },
    {
      "children": [
        3
      ],
      "name": "RootNode"
    },
    {
      "children": [
        4
      ],
      "matrix": [
        1.0,
        0.0,
        0.0,
        0.0,
        0.0,
        2.220446049250313e-16,
        -1.0,
        0.0,
        0.0,
        1.0,
        2.220446049250313e-16,
        0.0,
        -1394.86767578125,
        1293.7381591796875,
        -321.4268493652344,
        1.0
      ],
      "name": "Object13"
    },
    {
      "children": [
        5
      ],
      "matrix": [
        1.0,
        0.0,
        -0.0,
        0.0,
        0.0,
        1.0,
        0.0,
        0.0,
        0.0,
        0.0,
        1.0,
        0.0,
        -250.29176330566406,
        -371.7449035644531,
        -543.9171752929688,
        1.0
      ],
      "name": "Object_4"
    },
    {
      "mesh": 0,
      "name": "Object13_Material #118_0"
    }
  ],
  "samplers": [
    {
      "magFilter": 9729,
      "minFilter": 9987,
      "wrapS": 10497,
      "wrapT": 10497
    }
  ],
  "scene": 0,
  "scenes": [
    {
      "name": "Sketchfab_Scene",
      "nodes": [
        0
      ]
    }
  ],
  "textures": [
    {
      "sampler": 0,
      "source": 0
    }
  ]
}
